<svg xmlns="http://www.w3.org/2000/svg" version="1" viewBox="0 0 32 32" id="Food"><path d="M16 0C7.164 0 0 7.164 0 16s7.164 16 16 16 16-7.164 16-16S24.836 0 16 0zm-5.072 9.021h.08c-.016 0-.025.007-.04.008.624.022 1.089.49 1.089 1.121 0 .646-.484 1.13-1.13 1.13h-.08c-.241 0-.484.242-.484.484s.243.484.485.484h.08c.645 0 1.129.483 1.129 1.129 0 .645-.484 1.13-1.13 1.13a.346.346 0 0 1-.322-.321c0-.162.161-.325.323-.325.242 0 .484-.242.484-.484s-.162-.482-.404-.482a1.104 1.104 0 0 1-1.13-1.131c0-.565.484-1.13 1.13-1.13h.082c.242 0 .482-.242.482-.484s-.24-.484-.482-.484c-.162.08-.404-.08-.404-.242 0-.227.075-.376.283-.395-.015 0-.027-.008-.041-.008zm3.146 0s.082 0 .162.08c.646 0 1.13.484 1.13 1.13 0 .645-.484 1.13-1.13 1.13h-.162c-.242 0-.484.243-.484.485s.242.482.484.482h.08c.646 0 1.131.486 1.131 1.131s-.485 1.129-1.13 1.129a.346.346 0 0 1-.323-.322c0-.162.16-.323.322-.323.242 0 .485-.242.485-.484s-.243-.484-.485-.484a1.102 1.102 0 0 1-1.129-1.13c0-.564.565-1.13 1.13-1.13h.161c.242 0 .405-.242.405-.485 0-.242-.243-.484-.485-.484s-.404-.16-.404-.322c-.08-.162.08-.403.242-.403zm3.227 0s.081 0 .162.08c.645 0 1.129.484 1.129 1.13 0 .645-.484 1.13-1.13 1.13h-.161c-.242 0-.483.243-.483.485s.24.482.483.482h.082c.645 0 1.129.486 1.129 1.131s-.484 1.129-1.13 1.129a.346.346 0 0 1-.321-.322c0-.162.16-.323.322-.323.242 0 .484-.242.484-.484s-.242-.484-.484-.484c-.646 0-1.131-.484-1.131-1.13 0-.564.566-1.13 1.13-1.13h.08c.243 0 .485-.242.485-.485 0-.242-.242-.484-.484-.484s-.402-.16-.402-.322c-.081-.162.078-.403.24-.403zm6.455.565c.565 0 .969.403 1.21.887.243.484.403 1.049.403 1.533 0 .887-.563 1.614-1.289 1.775.726 2.26.483 4.358.645 6.455v.08c0 .646-.485 1.05-.97 1.05-.483 0-.966-.404-.966-1.05v-.08c.161-2.097 0-4.438.645-6.455-.727-.161-1.291-.888-1.291-1.775 0-.484.162-1.05.404-1.533.242-.484.644-.887 1.209-.887zM6.893 15.314H21.74c.242 0 .403.241.323.403-.646 2.42-2.34 4.278-4.438 5.246v1.693c0 .162-.163.323-.324.323h-5.809a.346.346 0 0 1-.322-.323v-1.693c-2.26-.968-3.872-2.906-4.518-5.246-.08-.162.08-.403.24-.403z" fill="#2ee08c" class="color000000 svgShape"></path></svg>