<svg xmlns="http://www.w3.org/2000/svg" enable-background="new 0 0 64 64" viewBox="0 0 64 64" id="videogame"><path fill="#2ee08c" d="M62.997,7.173v38.188H1.002V7.173c0-1.9,1.545-3.434,3.444-3.434h55.106C61.463,3.74,62.997,5.274,62.997,7.173z" class="color4de2c9 svgShape"></path><path fill="#ffffff" d="M1,45.36v3.698c0,1.903,1.543,3.446,3.446,3.446h55.108c1.903,0,3.446-1.543,3.446-3.446V45.36H1z" class="colorffffff svgShape"></path><path fill="#226e4a" d="M63.997,7.173c0-2.445-1.994-4.434-4.444-4.434H4.446c-2.45,0-4.444,1.989-4.444,4.434L0,49.059c0,2.452,1.994,4.446,4.446,4.446h19.329l-2.325,5.756h-2.407c-0.552,0-1,0.448-1,1s0.448,1,1,1h25.916c0.552,0,1-0.448,1-1s-0.448-1-1-1h-2.407l-2.325-5.756h19.328c2.452,0,4.446-1.994,4.446-4.446L63.997,7.173z M2.002,7.173c0-1.342,1.096-2.434,2.444-2.434h55.106c1.348,0,2.444,1.092,2.444,2.434V44.36H2.002V7.173z M40.394,59.26H23.606l2.325-5.756h12.137L40.394,59.26z M62,49.059c0,1.349-1.097,2.446-2.446,2.446H4.446C3.097,51.505,2,50.407,2,49.059v-2.697h60V49.059z" class="color33226e svgShape"></path><path fill="#ffffff" d="M36.284,20.778v8.882h-8.569v-8.892c0-4.331,1.513-8.516,4.279-11.856c1.388,1.659,2.463,3.548,3.183,5.563C35.908,16.478,36.284,18.607,36.284,20.778z" class="colorffffff svgShape"></path><polygon fill="#78ffbf" points="42.243 27.492 42.243 32.278 36.284 29.66 36.284 23.829" class="colorff787d svgShape"></polygon><polygon fill="#78ffbf" points="21.756 27.492 21.756 32.278 27.715 29.66 27.715 23.829" class="colorff787d svgShape"></polygon><g fill="#000000" class="color000000 svgShape"><path fill="#226e4a" d="M43.238,27.453v-3.984c0-0.55-0.44-1-1-1c-0.55,0-1,0.45-1,1V25.7l-3.955-2.43v-2.492c0-2.287-0.393-4.523-1.165-6.64c-0.768-2.147-1.897-4.122-3.358-5.868c-0.19-0.227-0.471-0.358-0.767-0.358c-0.26-0.013-0.58,0.132-0.77,0.362c-2.908,3.511-4.509,7.948-4.509,12.494v2.502l-3.957,2.432v-2.233c0-0.55-0.45-1-1-1s-1,0.45-1,1v4.004c0,0.006-0.002,0.012-0.002,0.018v4.787c0,0.338,0.17,0.653,0.453,0.837c0.166,0.108,0.355,0.163,0.547,0.163c0.137,0,0.273-0.028,0.402-0.084l5.767-2.534h8.148l5.767,2.534c0.129,0.057,0.266,0.084,0.402,0.084c0.191,0,0.382-0.055,0.547-0.163c0.283-0.185,0.453-0.5,0.453-0.837v-4.787C43.243,27.478,43.239,27.466,43.238,27.453z M26.715,25.617v3.39l-3.957,1.739v-2.697L26.715,25.617z M28.715,20.768c0-3.663,1.158-7.247,3.283-10.222c0.941,1.308,1.692,2.739,2.24,4.271c0.694,1.903,1.045,3.909,1.045,5.961v7.882h-6.568V20.768z M37.284,25.617l3.955,2.43v2.697l-3.955-1.738C37.284,29.006,37.284,25.617,37.284,25.617z" class="color33226e svgShape"></path><path fill="#226e4a" d="M28.308 32.309c-.552 0-1 .448-1 1v.304c0 .552.448 1 1 1s1-.448 1-1v-.304C29.308 32.757 28.86 32.309 28.308 32.309zM28.308 35.968c-.552 0-1 .448-1 1v3.222c0 .552.448 1 1 1s1-.448 1-1v-3.222C29.308 36.415 28.86 35.968 28.308 35.968zM35.691 38.886c-.552 0-1 .448-1 1v.304c0 .552.448 1 1 1s1-.448 1-1v-.304C36.691 39.334 36.244 38.886 35.691 38.886zM35.691 32.309c-.552 0-1 .448-1 1v3.222c0 .552.448 1 1 1s1-.448 1-1v-3.222C36.691 32.757 36.244 32.309 35.691 32.309zM32.015 36.882c-.524-.012-1.004.44-1.007.993l-.017 2.308c-.004.552.44 1.003.993 1.007.002 0 .005 0 .007 0 .549 0 .996-.443 1-.993l.017-2.308C33.012 37.337 32.567 36.886 32.015 36.882zM31.984 32.309c-.552.004-.997.455-.993 1.007l.017 1.218c.004.55.451.993 1 .993.002 0 .005 0 .007 0 .552-.004.997-.455.993-1.007l-.017-1.218C32.987 32.75 32.51 32.333 31.984 32.309z" class="color33226e svgShape"></path></g><g fill="#000000" class="color000000 svgShape"><path fill="#7effc2" d="M57.43,15.751v0.01c-2.724-0.01-4.937,2.202-4.937,4.937c0-2.734-2.213-4.947-4.937-4.947c2.734-0.01,4.937-2.213,4.937-4.937c0,1.357,0.553,2.599,1.451,3.486C54.831,15.198,56.063,15.751,57.43,15.751z" class="colorffcd7e svgShape"></path><path fill="#226e4a" d="M52.494,21.698c-0.552,0-1-0.448-1-1c0-2.177-1.766-3.947-3.937-3.947c-0.552,0-0.999-0.447-1-0.998c-0.001-0.552,0.445-1,0.996-1.002c2.173-0.008,3.94-1.774,3.94-3.937c0-0.552,0.448-1,1-1s1,0.448,1,1c0,1.039,0.42,2.05,1.153,2.774c0.744,0.752,1.729,1.162,2.783,1.162c0.552,0,1,0.448,1,1v0.011c0,0.266-0.106,0.521-0.294,0.708s-0.452,0.307-0.709,0.292c-0.005,0-0.011,0-0.016,0c-1.04,0-2.019,0.405-2.757,1.14c-0.748,0.745-1.16,1.738-1.16,2.796C53.494,21.25,53.046,21.698,52.494,21.698z M50.844,15.748c0.651,0.435,1.211,0.996,1.647,1.647c0.217-0.324,0.468-0.629,0.75-0.91c0.277-0.275,0.576-0.521,0.893-0.733c-0.321-0.217-0.624-0.467-0.902-0.749c-0.277-0.274-0.525-0.576-0.741-0.899C52.056,14.753,51.495,15.313,50.844,15.748z" class="color33226e svgShape"></path></g><g fill="#000000" class="color000000 svgShape"><path fill="#7effc2" d="M16.398,36.962v0.01c-2.724-0.01-4.937,2.202-4.937,4.937c0-2.734-2.213-4.947-4.937-4.947c2.734-0.01,4.937-2.213,4.937-4.937c0,1.357,0.553,2.599,1.451,3.486C13.799,36.409,15.031,36.962,16.398,36.962z" class="colorffcd7e svgShape"></path><path fill="#226e4a" d="M11.461,42.909c-0.552,0-1-0.448-1-1c0-2.177-1.766-3.947-3.937-3.947c-0.552,0-0.999-0.447-1-0.998c-0.001-0.552,0.445-1,0.996-1.002c2.173-0.008,3.94-1.774,3.94-3.937c0-0.552,0.448-1,1-1s1,0.448,1,1c0,1.039,0.42,2.05,1.153,2.774c0.744,0.752,1.729,1.162,2.784,1.162c0.552,0,1,0.448,1,1v0.011c0,0.266-0.106,0.521-0.294,0.708s-0.402,0.296-0.709,0.292c-0.005,0-0.011,0-0.016,0c-1.041,0-2.019,0.405-2.758,1.141c-0.748,0.745-1.16,1.738-1.16,2.796C12.461,42.462,12.014,42.909,11.461,42.909z M9.812,36.959c0.651,0.435,1.212,0.996,1.647,1.647c0.217-0.324,0.468-0.628,0.75-0.91c0.277-0.276,0.576-0.521,0.894-0.733c-0.322-0.217-0.624-0.467-0.902-0.749c-0.277-0.274-0.525-0.576-0.741-0.899C11.024,35.964,10.463,36.524,9.812,36.959z" class="color33226e svgShape"></path></g><g fill="#000000" class="color000000 svgShape"><path fill="#226e4a" d="M54.422 35.184c-.552 0-1-.448-1-1v-.875c0-.552.448-1 1-1s1 .448 1 1v.875C55.422 34.736 54.975 35.184 54.422 35.184zM54.422 41.98c-.552 0-1-.448-1-1v-4.108c0-.552.448-1 1-1s1 .448 1 1v4.108C55.422 41.532 54.975 41.98 54.422 41.98z" class="color33226e svgShape"></path></g><g fill="#000000" class="color000000 svgShape"><path fill="#226e4a" d="M9.913 11.168c-.552 0-1-.448-1-1V9.293c0-.552.448-1 1-1s1 .448 1 1v.875C10.913 10.72 10.465 11.168 9.913 11.168zM9.913 17.964c-.552 0-1-.448-1-1v-4.108c0-.552.448-1 1-1s1 .448 1 1v4.108C10.913 17.516 10.465 17.964 9.913 17.964z" class="color33226e svgShape"></path><g fill="#000000" class="color000000 svgShape"><path fill="#226e4a" d="M13.01 20.592c-.552 0-1-.448-1-1v-.875c0-.552.448-1 1-1s1 .448 1 1v.875C14.01 20.144 13.562 20.592 13.01 20.592zM13.01 17.03c-.552 0-1-.448-1-1v-4.109c0-.552.448-1 1-1s1 .448 1 1v4.109C14.01 16.582 13.562 17.03 13.01 17.03z" class="color33226e svgShape"></path></g></g></svg>