<svg xmlns="http://www.w3.org/2000/svg" viewBox="0 0 64 64" id="Backpack"><path fill="#2b6449" d="m59.43 51.48-1.98-15.02c-.46-3.43-3.33-6.3-6.83-6.97l-.74-13.61c-.09-1.54-1.08-2.81-2.46-3.34l.24-2.4c.14-1.34-.3-2.67-1.2-3.67-.9-.99-2.18-1.56-3.52-1.56H39.8V2.85C39.8 1.28 38.3 0 36.44 0h-8.9c-1.85 0-3.36 1.28-3.36 2.85v2.07h-3.14c-1.34 0-2.62.57-3.52 1.56-.9 1-1.34 2.33-1.2 3.67l.24 2.4c-1.39.52-2.38 1.79-2.46 3.34l-.74 13.61c-3.5.67-6.37 3.54-6.83 6.97L4.57 51.48c-.16 1.19.2 2.4.99 3.34.79.92 1.93 1.47 3.15 1.52l3.2.07-.14 2.59c-.07 1.32.39 2.57 1.3 3.52.9.95 2.12 1.48 3.44 1.48h30.97c1.32 0 2.54-.53 3.44-1.48.91-.95 1.37-2.2 1.3-3.52l-.14-2.59 3.21-.08c1.21-.04 2.36-.59 3.14-1.51a4.25 4.25 0 0 0 1-3.34zm-47.42 2.99-3.24-.07c-.67-.03-1.3-.33-1.74-.84-.44-.51-.62-1.16-.54-1.82l1.98-15.01c.33-2.47 2.31-4.56 4.8-5.23l-1.26 22.97zM26.13 2.85c0-.44.58-.91 1.42-.91h8.9c.83 0 1.42.48 1.42.91v2.07H26.13V2.85zm-3.77 37.34a2.297 2.297 0 0 0-1.76 2.24v6.19c0 1.09.76 2 1.76 2.24v11.2h-5.85c-.78 0-1.5-.31-2.04-.88-.53-.56-.81-1.3-.77-2.08l.19-3.59v-.04l2.14-39.49c.03-.56.31-1.06.74-1.38l.99 9.75c.24 2.39 2.2 4.18 4.59 4.25v11.59zm3.66 21.87H24.3V50.94h1.72v11.12zm1.77-13.44c0 .21-.17.38-.38.38H22.9c-.2 0-.37-.16-.37-.38v-6.19c0-.21.16-.38.37-.38h4.52c.2 0 .38.16.38.38v6.19zm-3.49-8.5v-11.5h1.71v11.5H24.3zm11.74.07a2.296 2.296 0 0 0-1.77 2.24v6.19c0 1.09.76 2 1.77 2.24v11.2h-8.09V50.87a2.318 2.318 0 0 0 1.77-2.25v-6.19c0-1.1-.77-2-1.78-2.25V28.62h8.1v11.57zm3.65 21.87h-1.71V50.94h1.71v11.12zm1.77-13.44c0 .21-.16.38-.37.38h-4.51a.38.38 0 0 1-.38-.38v-6.19c0-.21.17-.38.38-.38h4.52c.2 0 .37.16.37.38v6.19zm-3.48-8.5v-11.5h1.71v11.5h-1.71zM22.5 26.68a2.8 2.8 0 0 1-2.79-2.52l-1.12-10.99-.33-3.23c-.08-.8.17-1.56.71-2.16.54-.59 1.28-.92 2.08-.92h21.9c.8 0 1.54.33 2.08.92.53.6.79 1.37.71 2.16l-.33 3.23-1.11 10.99a2.8 2.8 0 0 1-2.79 2.52H22.5zm27.02 34.5c-.53.57-1.26.88-2.04.88h-5.86V50.87a2.307 2.307 0 0 0 1.77-2.25v-6.19c0-1.1-.76-2-1.77-2.25V28.61a4.743 4.743 0 0 0 4.6-4.26l.99-9.75c.43.32.71.81.74 1.38l2.14 39.49v.04l.19 3.59c.06.78-.22 1.52-.76 2.08zm7.45-7.62c-.44.51-1.07.81-1.73.84l-3.26.07-1.25-22.97c2.49.67 4.47 2.75 4.8 5.22l1.97 15.02c.09.66-.09 1.3-.53 1.82z" class="color2b2f64 svgShape"></path><path fill="#4fe69f" d="M37.98 50.94h1.71v11.12h-1.71z" class="color4fbee6 svgShape"></path><path fill="#7dffc2" d="M50.29 59.09c.05.79-.23 1.52-.77 2.08-.53.57-1.26.88-2.04.88h-5.86V50.87a2.307 2.307 0 0 0 1.77-2.25v-6.19c0-1.1-.76-2-1.77-2.25V28.61a4.743 4.743 0 0 0 4.6-4.26l.99-9.75c.43.32.71.81.74 1.38l2.14 39.49v.04l.2 3.58z" class="colorffdc7d svgShape"></path><path fill="#edeeee" d="M41.46 42.43v6.19c0 .21-.16.38-.37.38h-4.51a.38.38 0 0 1-.38-.38v-6.19c0-.21.17-.38.38-.38h4.52c.2.01.36.17.36.38z" class="colorededee svgShape"></path><path fill="#4fe69f" d="M37.98 28.62h1.71v11.5h-1.71z" class="color4fbee6 svgShape"></path><path fill="#7dffc2" d="M34.27 42.43v6.19c0 1.09.76 2 1.77 2.24v11.2h-8.09V50.87a2.318 2.318 0 0 0 1.77-2.25v-6.19c0-1.1-.77-2-1.78-2.25V28.62h8.1V40.2a2.303 2.303 0 0 0-1.77 2.23z" class="colorffdc7d svgShape"></path><path fill="#4fe69f" d="M24.3 50.94h1.72v11.12H24.3z" class="color4fbee6 svgShape"></path><path fill="#2ee08c" d="M37.98 60.5h1.71v1.56h-1.71z" class="color38a9da svgShape"></path><path fill="#5deba8" d="M27.96 60.5h8.09v1.56h-8.09z" class="colorebc25d svgShape"></path><path fill="#2ee08c" d="M24.3 60.5h1.72v1.56H24.3z" class="color38a9da svgShape"></path><path fill="#edeeee" d="M27.79 42.43v6.19c0 .21-.17.38-.38.38H22.9c-.2 0-.37-.16-.37-.38v-6.19c0-.21.16-.38.37-.38h4.52c.2.01.37.17.37.38z" class="colorededee svgShape"></path><path fill="#d6d7d7" d="M41.1 42.06h-4.52c-.2 0-.38.16-.38.38v6.19c0 .21.17.38.38.38h4.51c.2 0 .37-.16.37-.38v-6.19c0-.22-.16-.38-.36-.38zm-1.09 5.48h-2.35v-4.03h2.35v4.03zm-12.6-5.48H22.9c-.2 0-.37.16-.37.38v6.19c0 .21.16.38.37.38h4.51c.2 0 .38-.16.38-.38v-6.19c0-.22-.17-.38-.38-.38zm-1.07 5.48h-2.35v-4.03h2.35v4.03z" class="colord7d6d6 svgShape"></path><path fill="#4fe69f" d="M24.3 28.62h1.71v11.5H24.3zM45.03 7.78c-.54-.59-1.28-.92-2.08-.92h-21.9c-.8 0-1.54.33-2.08.92-.53.6-.79 1.37-.71 2.16l.33 3.23 1.12 10.99a2.8 2.8 0 0 0 2.79 2.52h19a2.8 2.8 0 0 0 2.79-2.52l1.12-10.99.33-3.23c.08-.8-.17-1.56-.71-2.16zm-5.28 6.46h-1.76v1.5c0 .53-.44.97-.97.97s-.97-.44-.97-.97v-1.5h-11.8a.97.97 0 0 1 0-1.94h15.5a.97.97 0 0 1 0 1.94z" class="color4fbee6 svgShape"></path><path fill="#2ee08c" d="M45.03 7.78c-.54-.59-1.28-.92-2.08-.92h-21.9c-.8 0-1.54.33-2.08.92-.53.6-.79 1.37-.71 2.16l.33 3.23 1.12 10.99a2.8 2.8 0 0 0 2.79 2.52h19a2.8 2.8 0 0 0 2.79-2.52l1.12-10.99.33-3.23c.08-.8-.17-1.56-.71-2.16zm-1.08 5.83-1 9.62c-.13 1.25-1.2 2.2-2.48 2.2H23.53c-1.28 0-2.36-.95-2.48-2.2l-1-9.62-.29-2.82c-.07-.7.16-1.37.63-1.89.48-.51 1.14-.8 1.86-.8h19.49c.72 0 1.38.29 1.86.8.48.52.7 1.19.63 1.89l-.28 2.82z" class="color38a9da svgShape"></path><path fill="#7dffc2" d="M20.6 42.43v6.19c0 1.09.76 2 1.76 2.24v11.2h-5.85c-.78 0-1.5-.31-2.04-.88-.53-.56-.81-1.3-.77-2.08l.19-3.59v-.04l2.14-39.49c.03-.56.31-1.06.74-1.38l.99 9.75c.24 2.39 2.2 4.18 4.59 4.25v11.6c-1 .24-1.75 1.15-1.75 2.23z" class="colorffdc7d svgShape"></path><path fill="#5deba8" d="M50.29 59.09c.05.79-.23 1.52-.77 2.08-.53.57-1.26.88-2.04.88h-5.86V60.5h4.48c.71 0 1.37-.29 1.85-.81.49-.52.75-1.2.7-1.93l-.17-3.31v-.04l-1.83-34.26.56-5.55c.43.32.71.81.74 1.38l2.14 39.49v.04l.2 3.58zM22.36 60.5v1.56h-5.85c-.78 0-1.5-.31-2.04-.88-.53-.56-.81-1.3-.77-2.08l.19-3.59v-.04l2.14-39.49c.03-.56.31-1.06.74-1.38l.56 5.55-1.83 34.26v.04l-.17 3.31c-.05.73.21 1.41.7 1.93.48.52 1.14.81 1.85.81h4.48z" class="colorebc25d svgShape"></path><path fill="#2b6449" d="M40.72 13.27c0 .54-.43.97-.97.97h-1.76v1.5c0 .53-.44.97-.97.97s-.97-.44-.97-.97v-1.5h-11.8a.97.97 0 0 1 0-1.94h15.5c.54 0 .97.43.97.97z" class="color2b2f64 svgShape"></path></svg>