<svg xmlns="http://www.w3.org/2000/svg" enable-background="new 0 0 100 100" viewBox="0 0 100 100" id="Movies"><path d="M92.498,6.002c-21.668-0.006-63.326,0.004-84.996,0c-0.829,0-1.5,0.671-1.5,1.5c0.016,27.284-0.01,57.714,0,84.985
		c0,0.828,0.671,1.5,1.5,1.5c21.214,0.043,64.049-0.031,84.996,0c0.829,0,1.5-0.672,1.5-1.5c-0.01-15.225,0.007-36.032,0-51.255
		c0,0,0-16.206,0-16.206V7.502C93.998,6.673,93.327,6.002,92.498,6.002z M90.998,40.392H76.472V25.865h14.527V40.392z
		 M90.998,57.257H76.472V42.731h14.527V57.257z M76.472,59.596h14.527v14.527H76.472V59.596z M90.998,23.527H76.472V9h14.527V23.527
		z M9.002,42.731h14.527v14.527H9.002V42.731z M23.529,40.392H9.002V25.865h14.527V40.392z M9.002,59.596h14.527v14.527H9.002
		V59.596z M9.002,9h14.527v14.527H9.002V9z M9.002,76.461h14.527v14.527H9.002V76.461z M26.529,74.962c0-20.659,0-45.307,0-65.961
		h46.943c0,26.281,0,55.705,0,81.985H26.529V74.962z M90.998,90.988H76.472V76.461h14.527V90.988z" fill="#2ee08c" class="color000000 svgShape"></path><path d="M60.82,48.735L40.814,35.757c-0.948-0.654-2.354,0.104-2.316,1.259c0,0,0,25.956,0,25.956
		c-0.035,1.151,1.367,1.917,2.316,1.259c0,0,20.006-12.978,20.006-12.978C61.718,50.704,61.721,49.284,60.82,48.735z M41.497,60.211
		V39.777l15.75,10.217L41.497,60.211z" fill="#2ee08c" class="color000000 svgShape"></path></svg>