<svg xmlns="http://www.w3.org/2000/svg" viewBox="0 0 32 32" id="Certificate"><path d="M5.45 3a.5.5 0 0 0-.065.012A2.5 2.5 0 0 0 3 5.5V7h4v20h12v1.5a.5.5 0 0 0 .777.416L21 28.102l1.223.814A.5.5 0 0 0 23 28.5V27h4V5.533a.5.5 0 0 0 0-.033C27 4.124 25.876 3 24.5 3h-19a.5.5 0 0 0-.05 0zm.05 1C6.34 4 7 4.66 7 5.5V6H4v-.5C4 4.66 4.66 4 5.5 4zm1.986 0H24.5c.84 0 1.5.66 1.5 1.5V26h-3v-1.783c.609-.55 1-1.336 1-2.217 0-1.65-1.35-3-3-3s-3 1.35-3 3c0 .88.391 1.667 1 2.217V26H8V5.5c0-.564-.196-1.08-.514-1.5zM13 6v1h8V6h-8zm-3 3v1h14V9H10zm0 2v1h14v-1H10zm0 2v1h14v-1H10zm0 2v1h14v-1H10zm0 2v1h14v-1H10zm0 2v1h7v-1h-7zm11 1c1.11 0 2 .89 2 2 0 1.11-.89 2-2 2-1.11 0-2-.89-2-2 0-1.11.89-2 2-2zm-1 4.814c.314.113.648.186 1 .186s.686-.073 1-.186v2.752l-.723-.482a.5.5 0 0 0-.554 0l-.723.482v-2.752z" color="#000" font-family="sans-serif" font-weight="400" overflow="visible" style="line-height:normal;text-indent:0;text-align:start;text-decoration-line:none;text-decoration-style:solid;text-decoration-color:#000;text-transform:none;block-progression:tb;white-space:normal;isolation:auto;mix-blend-mode:normal;solid-color:#000;solid-opacity:1" fill="#2ee08c" class="color000000 svgShape"></path></svg>