<svg xmlns="http://www.w3.org/2000/svg" viewBox="0 0 16 16" id="It"><path d="M1 1c-.545 0-1 .455-1 1v10c0 .545.455 1 1 1h5v2H4v1h8v-1h-1.992v-2H15c.545 0 1-.455 1-1V2c0-.545-.455-1-1-1H1zm0 1h14v10H1V2zm2 1c-.545 0-1 .455-1 1v6c0 .545.455 1 1 1h10c.545 0 1-.455 1-1V4c0-.545-.455-1-1-1H3zm0 1h10v6H3V4zm4 9h2.008v2H7v-2z" color="#000" font-family="sans-serif" font-weight="400" overflow="visible" style="line-height:normal;text-indent:0;text-align:start;text-decoration-line:none;text-decoration-style:solid;text-decoration-color:#000;text-transform:none;block-progression:tb;white-space:normal;isolation:auto;mix-blend-mode:normal;solid-color:#000;solid-opacity:1" fill="#2ee08c" class="color000000 svgShape"></path></svg>